<?xml version="1.0" encoding="utf-8"?>
<!-- Generator: Adobe Illustrator 28.1.0, SVG Export Plug-In . SVG Version: 6.00 Build 0)  -->
<svg version="1.1" id="레이어_1" xmlns="http://www.w3.org/2000/svg" xmlns:xlink="http://www.w3.org/1999/xlink" x="0px"
	 y="0px" viewBox="0 0 24 24" style="enable-background:new 0 0 24 24;" xml:space="preserve">
<style type="text/css">
	.st0{fill:#202020;}
</style>
<g>
	<path class="st0" d="M23,15.4c0-0.7-0.7-1.2-1.3-1.1L12,16.2l0,0V2.1V1.7V1.1c0-0.8-0.7-1.3-1.5-1.1c-0.3,0.1-0.7,0.3-0.9,0.4
		L8.9,0.9C8.8,1,8.7,1.3,8.7,1.4v1.3c0,0.4,0.4,0.7,0.8,0.5l0.3-0.1l0,0v13.2v1.3c0,0.7,0.7,1.2,1.3,1.1l1.3-0.3l8.1-1.6l0,0l0,0
		c-0.3,0.4-0.5,0.7-0.9,0.9l-6.4,3.7c-0.4,0.3-0.8,0.3-1.2,0.3s-0.8-0.1-1.2-0.3l-3.2-1.9V4.3V3.4V2.7c0-0.4-0.4-0.7-0.8-0.5l-3.6,2
		C1.9,5,1,6.5,1,8.2v0.1v7.3c0,1.7,0.9,3.2,2.4,4.1l0.1,0.1c0.4,0.3,0.8,0,0.8-0.5V18c0-0.1-0.1-0.3-0.3-0.4
		c-0.3-0.1-0.4-0.4-0.5-0.7c-0.3-0.4-0.3-0.8-0.3-1.2V8.3c0-0.4,0.1-0.8,0.3-1.2C3.8,6.7,4,6.3,4.4,6.2l0.9-0.7v12.8v1.9v0.4
		c0,0.1,0.1,0.4,0.3,0.5l4,2.3c0,0,0.1,0,0.1,0.1l0,0c0.7,0.4,1.5,0.5,2.3,0.5c0.8,0,1.6-0.3,2.4-0.7l6.4-3.7c1.3-0.8,2.1-2,2.3-3.5
		l0,0c0,0,0,0,0-0.1l0,0l0,0l0,0l0,0l0,0l0,0l0,0l0,0l0,0l0,0c0-0.1,0-0.1,0-0.3C23,15.8,23,15.4,23,15.4z"/>
	<path class="st0" d="M19.6,10.8c0.5,0,1.2-0.1,1.6-0.4c1.6-0.9,2.1-2.9,1.2-4.5c-0.7-1.1-1.7-1.6-2.9-1.6c-0.5,0-1.2,0.1-1.6,0.4
		c-1.6,0.9-2.1,2.9-1.2,4.5C17.3,10.3,18.4,10.8,19.6,10.8z M18.5,7.2c0-0.1,0.1-0.5,0.5-0.7c0.1-0.1,0.4-0.1,0.5-0.1l0,0l0,0
		c0.1,0,0.4,0,0.5,0.1c0.1,0.1,0.3,0.3,0.4,0.4c0.1,0.4,0.1,0.7,0.1,0.8c0,0.1-0.1,0.5-0.5,0.7c-0.1,0.1-0.4,0.1-0.5,0.1
		s-0.4,0-0.5-0.1c-0.3,0-0.4-0.1-0.4-0.3C18.4,7.8,18.5,7.5,18.5,7.2z"/>
</g>
</svg>
