<?xml version="1.0" encoding="UTF-8"?>
<svg xmlns="http://www.w3.org/2000/svg" viewBox="0 0 673.10999 392.08091" fill="currentColor">
    <g id="svg4">
        <path d="M671.18005,377.26292l.05005-.03302c-.21997-1.37799-.42993-2.73999-.65991-4.10199-1.38989-8.45099-3.12012-16.80298-5.12988-25.04102-3.53003-14.39099-7.96997-28.43701-13.27002-42.03998-4.47998-11.52002-9.58008-22.72699-15.23999-33.59003-7.28003-13.948-15.48999-27.33795-24.56006-40.07196-11.12012-15.60498-23.54004-30.22504-37.1001-43.69702-5.68994-5.66199-11.58008-11.12598-17.65991-16.36096-13.16992-11.37103-27.23999-21.72504-42.06006-30.97998.12988-.21405.23999-.44299.37012-.65704,6.79004-11.73199,13.6001-23.44897,20.38989-35.18097,6.63989-11.45398,13.28003-22.90802,19.91992-34.36102,4.78003-8.22095,9.55005-16.45898,14.30005-24.67999,1.12988-1.953,2.02002-3.97101,2.68994-6.03796,1.86011-5.76001,1.93994-11.815.44995-17.44403-.37988-1.39398-.84009-2.75598-1.3999-4.08496-.56006-1.33002-1.20996-2.62604-1.94995-3.87305-2.54004-4.26599-6.16992-7.97498-10.72998-10.68298-4.03003-2.39502-8.54004-3.823-13.15991-4.23297-1.93994-.164-3.88989-.14801-5.83008.04895-1.6001.164-3.18994.46002-4.77002.87006-5.62012,1.49298-10.84009,4.578-14.8999,9.04095-1.45996,1.60803-2.78003,3.38104-3.90991,5.33301-4.77002,8.22101-9.54004,16.45898-14.30005,24.67999l-19.91992,34.36102c-6.79004,11.73297-13.6001,23.44897-20.38989,35.18201-.73999,1.27899-1.48999,2.55896-2.22998,3.85596-1.03003-.41095-2.05005-.82098-3.08008-1.21497-37.43994-14.276-78.06006-22.086-120.52002-22.086-1.15991,0-2.31006,0-3.47998.01599-37.75.37701-74.02002,6.94098-107.86011,18.72302-3.90991,1.362-7.78003,2.80597-11.62012,4.31598-.68994-1.198-1.3999-2.396-2.08008-3.59399-6.79004-11.73303-13.59998-23.44897-20.39001-35.18201-6.64001-11.453-13.28003-22.90698-19.92004-34.36102-4.78003-8.22095-9.55005-16.45795-14.30005-24.67896-1.14001-1.953-2.44995-3.72504-3.91003-5.33301-4.06006-4.46399-9.28003-7.54901-14.90002-9.04199-1.57996-.41003-3.17004-.70502-4.78003-.86902-1.93005-.19702-3.88-.21399-5.81995-.04999-4.62.39398-9.13,1.82202-13.17004,4.23401-4.56006,2.70697-8.16003,6.41595-10.71997,10.68201-.73999,1.24695-1.40002,2.54395-1.94995,3.87299-.56006,1.32898-1.04004,2.69098-1.40002,4.086-1.48999,5.62799-1.41003,11.68298.43994,17.44299.68005,2.06799,1.56006,4.086,2.68994,6.039,4.78003,8.22101,9.55005,16.45801,14.30005,24.67902,6.65002,11.45398,13.29004,22.90796,19.93005,34.36096,6.79004,11.73303,13.58997,23.44904,20.38,35.18201.05005.09802.12.19702.17004.29498-13.69995,8.51703-26.72998,17.95203-39.03003,28.27301-7.37,6.18701-14.46997,12.66797-21.27002,19.44501-13.55005,13.47198-25.95996,28.09302-37.09998,43.698-9.07996,12.73401-17.30005,26.10699-24.56006,40.07196-5.66003,10.86304-10.76001,22.07001-15.23999,33.59003-5.30005,13.60297-9.73999,27.64899-13.27002,42.03998-2.01001,8.23804-3.71997,16.57404-5.13,25.04102-.22998,1.362-.43994,2.73999-.65002,4.10199-.76001,4.90704-1.40002,9.84601-1.93994,14.81799h673.10999c-.54004-4.97198-1.17993-9.91101-1.92993-14.81799ZM206.45032,285.18388l-.00024.00006c-11.04993,16.62097-30.92993,22.82697-44.3999,13.85999-13.45996-8.966-15.42004-29.70905-4.37-46.33099,11.06006-16.62103,30.93005-22.82703,44.40002-13.86005,13.47021,8.966,15.43018,29.70898,4.37012,46.33099ZM511.64026,298.98692c-13.45996,8.96698-33.33984,2.76099-44.38989-13.86102-11.05981-16.62097-9.09985-37.36395,4.37012-46.33099,13.45996-8.966,33.33984-2.76099,44.38989,13.86102,11.05981,16.62097,9.09985,37.36499-4.37012,46.33099Z"/>
    </g>
</svg>