<svg
		xmlns="http://www.w3.org/2000/svg"
		xmlns:xlink="http://www.w3.org/1999/xlink"
		version="1.1"
		width="256"
		height="256"
		viewBox="0 0 256 256"
		xml:space="preserve"
		fill="none"
>
  <g
		  style="stroke: none; stroke-width: 0; stroke-dasharray: none; stroke-linecap: butt; stroke-linejoin: miter; stroke-miterlimit: 10; fill: none; fill-rule: nonzero; opacity: 1;"
		  transform="translate(1.4065934065934016 1.4065934065934016) scale(2.81 2.81)"
  >
    <path
			d="M 17.719 81.929 c -1.546 2.706 -4.994 3.618 -7.7 2.072 c -2.706 -1.546 -3.618 -4.994 -2.072 -7.7 l 4.02 -6.958 c 4.546 -1.407 8.241 -0.325 11.163 3.201 L 17.719 81.929 z"
		    fill="currentColor"
		    transform="matrix(1 0 0 1 0 0)"
		    stroke-linecap="round"
	/>
	  <path
			  d="M 56.805 66.746 H 5.628 C 2.505 66.746 0 64.242 0 61.118 c 0 -3.123 2.505 -5.628 5.628 -5.628 h 14.348 l 18.368 -31.835 l -5.736 -9.957 c -1.546 -2.706 -0.634 -6.123 2.072 -7.7 c 2.706 -1.546 6.123 -0.634 7.7 2.072 l 2.458 4.345 l 2.505 -4.329 c 1.546 -2.706 4.994 -3.618 7.7 -2.072 c 2.706 1.546 3.618 4.994 2.072 7.7 L 32.979 55.491 h 17.456 C 56.093 55.491 59.263 62.139 56.805 66.746 z"
			  fill="currentColor"
			  transform="matrix(1 0 0 1 0 0)"
			  stroke-linecap="round"
	  />
	  <path
			  d="M 84.372 66.777 H 76.24 l 5.489 9.524 c 1.546 2.706 0.634 6.123 -2.072 7.7 c -2.706 1.546 -6.123 0.634 -7.7 -2.072 c -9.246 -16.033 -16.188 -28.031 -20.795 -36.025 c -4.716 -8.133 -1.345 -16.296 1.979 -19.064 c 3.695 6.339 9.215 15.91 16.59 28.681 h 14.642 c 3.123 0 5.628 2.505 5.628 5.628 C 90 64.272 87.495 66.777 84.372 66.777 z"
			  fill="currentColor"
			  transform="matrix(1 0 0 1 0 0)"
			  stroke-linecap="round"
	  />
  </g>
</svg>