<?xml version="1.0" encoding="utf-8"?>
<!-- Generator: Adobe Illustrator 28.1.0, SVG Export Plug-In . SVG Version: 6.00 Build 0)  -->
<svg version="1.1" id="레이어_1" xmlns="http://www.w3.org/2000/svg" xmlns:xlink="http://www.w3.org/1999/xlink" x="0px"
	 y="0px" viewBox="0 0 330.2 192.5" style="enable-background:new 0 0 330.2 192.5;" xml:space="preserve">
<style type="text/css">
	.st0{clip-path:url(#SVGID_00000156578697369914505030000018013109844144971949_);}
	.st1{fill:#34A853;}
	.st2{fill:#202124;}
</style>
<g transform="translate(-275.3 -379.6)">
	<g>
		<g>
			<defs>
				<rect id="SVGID_1_" x="275.3" y="379.6" width="330.5" height="192.5"/>
			</defs>
			<clipPath id="SVGID_00000114778143972041132120000002412329169474066048_">
				<use xlink:href="#SVGID_1_"  style="overflow:visible;"/>
			</clipPath>
			<g style="clip-path:url(#SVGID_00000114778143972041132120000002412329169474066048_);">
				<path class="st1" d="M604.9,564.7c-0.1-0.7-0.2-1.3-0.3-2c-0.7-4.1-1.5-8.2-2.5-12.3c-1.7-7.1-3.9-14-6.5-20.6
					c-2.2-5.7-4.7-11.2-7.5-16.5c-3.6-6.8-7.6-13.4-12.1-19.7c-5.5-7.7-11.6-14.8-18.2-21.5c-2.8-2.8-5.7-5.5-8.7-8
					c-6.5-5.6-13.4-10.7-20.7-15.2c0.1-0.1,0.1-0.2,0.2-0.3c3.3-5.8,6.7-11.5,10-17.3c3.3-5.6,6.5-11.2,9.8-16.9
					c2.3-4,4.7-8.1,7-12.1c0.6-1,1-1.9,1.3-3c0.9-2.8,1-5.8,0.2-8.6c-0.2-0.7-0.4-1.4-0.7-2c-0.3-0.7-0.6-1.3-1-1.9
					c-1.2-2.1-3-3.9-5.3-5.2c-2-1.2-4.2-1.9-6.5-2.1c-1-0.1-1.9-0.1-2.9,0c-0.8,0.1-1.6,0.2-2.3,0.4c-2.8,0.7-5.3,2.2-7.3,4.4
					c-0.7,0.8-1.4,1.7-1.9,2.6c-2.3,4-4.7,8.1-7,12.1l-9.8,16.9c-3.3,5.8-6.7,11.5-10,17.3c-0.4,0.6-0.7,1.3-1.1,1.9l-1.5-0.6
					c-18.4-7-38.3-10.8-59.2-10.8h-1.7c-18.5,0.2-36.3,3.4-53,9.2c-1.9,0.7-3.8,1.4-5.7,2.1c-0.3-0.6-0.7-1.2-1-1.8
					c-3.3-5.8-6.7-11.5-10-17.3c-3.3-5.6-6.5-11.2-9.8-16.9c-2.3-4-4.7-8.1-7-12.1c-0.6-1-1.2-1.8-1.9-2.6c-2-2.2-4.6-3.7-7.3-4.4
					c-0.8-0.2-1.6-0.3-2.3-0.4c-1-0.1-1.9-0.1-2.9,0c-2.3,0.2-4.5,0.9-6.5,2.1c-2.2,1.3-4,3.1-5.3,5.2c-0.4,0.6-0.7,1.2-1,1.9
					s-0.5,1.3-0.7,2c-0.7,2.8-0.7,5.7,0.2,8.6c0.3,1,0.8,2,1.3,3c2.3,4,4.7,8.1,7,12.1c3.3,5.6,6.5,11.2,9.8,16.9
					c3.3,5.8,6.7,11.5,10,17.3l0.1,0.1c-6.7,4.2-13.1,8.8-19.2,13.9c-3.6,3-7.1,6.2-10.4,9.5c-6.7,6.6-12.7,13.8-18.2,21.5
					c-4.5,6.3-8.5,12.8-12.1,19.7c-2.8,5.3-5.3,10.8-7.5,16.5c-2.6,6.7-4.8,13.6-6.5,20.6c-1,4-1.8,8.1-2.5,12.3
					c-0.1,0.7-0.2,1.3-0.3,2c-0.4,2.4-0.7,4.8-1,7.3h330.5C605.5,569.5,605.2,567.1,604.9,564.7z"/>
				<path class="st2" d="M526.5,526.2c6.6-4.4,7.6-14.6,2.1-22.7c-5.4-8.2-15.2-11.2-21.8-6.8s-7.6,14.6-2.1,22.7
					C510.1,527.6,519.9,530.6,526.5,526.2z"/>
				<path class="st2" d="M376.7,519.5c5.4-8.2,4.5-18.3-2.1-22.7s-16.4-1.4-21.8,6.8s-4.5,18.3,2.1,22.7S371.2,527.6,376.7,519.5z"
					/>
			</g>
		</g>
	</g>
</g>
</svg>
