<?xml version="1.0" encoding="utf-8"?>
<!-- Generator: Adobe Illustrator 28.1.0, SVG Export Plug-In . SVG Management: 6.00 Build 0)  -->
<svg version="1.1" id="레이어_1" xmlns="http://www.w3.org/2000/svg" xmlns:xlink="http://www.w3.org/1999/xlink" x="0px"
	 y="0px" viewBox="0 0 369 512" style="enable-background:new 0 0 369 512;" xml:space="preserve">
<style type="text/css">
	.st0{fill:#264DE4;}
	.st1{fill:#2965F1;}
	.st2{fill:#EBEBEB;}
	.st3{fill:#FFFFFF;}
</style>
<g transform="translate(-193.63 -276.36)">
	<g transform="translate(119 276.36)">
		<polygon class="st0" points="440.5,100.6 407.4,470.8 258.9,512 110.8,470.9 77.8,100.6 		"/>
		<polygon class="st1" points="379.2,447.2 407.4,130.9 259.1,130.9 259.1,480.5 		"/>
		<polygon class="st2" points="153.4,268.2 157.5,313.6 259.1,313.6 259.1,268.2 		"/>
		<polygon class="st2" points="259.1,176.3 259,176.3 145.3,176.3 149.4,221.7 259.1,221.7 		"/>
		<polygon class="st2" points="259.1,433.4 259.1,386.1 258.9,386.2 208.4,372.5 205.1,336.3 180.5,336.3 159.5,336.3 165.9,407.6
			258.9,433.5 		"/>
		<path fill="white" d="M163.1,0h55v23h-32v23h32v23h-55V0z"/>
		<path fill="white" d="M229.1,0h55v20h-32v4h32v46h-55V49h32v-4h-32V0z"/>
		<path fill="white" d="M295.1,0h55v20h-32v4h32v46h-55V49h32v-4h-32V0z"/>
		<polygon class="st3" points="314.9,313.6 309.6,372.5 259,386.2 259,433.4 352.1,407.6 352.7,400 363.4,280.4 364.5,268.2
			372.7,176.3 259,176.3 259,221.7 323,221.7 318.8,268.2 259,268.2 259,313.6 		"/>
	</g>
</g>
</svg>
