<?xml version="1.0" encoding="utf-8"?>
<!-- Generator: Adobe Illustrator 28.1.0, SVG Export Plug-In . SVG Management: 6.00 Build 0)  -->
<svg version="1.1" id="레이어_1" xmlns="http://www.w3.org/2000/svg" xmlns:xlink="http://www.w3.org/1999/xlink" x="0px"
	 y="0px" viewBox="0 0 256 256" style="enable-background:new 0 0 256 256;" xml:space="preserve">
<style type="text/css">
	.st0{fill:url(#SVGID_1_);}
	.st1{fill:url(#SVGID_00000161613491209841482050000000803637915978255247_);}
	.st2{fill:url(#SVGID_00000041295158875831140270000006968779036645359501_);}

	path {
		-webkit-filter: drop-shadow( 0px 3px 5px rgba(0, 0, 0, .7));
  		filter: drop-shadow( 0px 3px 5px rgba(0, 0, 0, .7));
	}
</style>
<g id="레이어_1_00000041290774315015258810000018225227008860595086_">

		<linearGradient id="SVGID_1_" gradientUnits="userSpaceOnUse" x1="17.9606" y1="129.9754" x2="238.0008" y2="129.9754" gradientTransform="matrix(1 0 0 -1 0 258)">
		<stop  offset="0.25" style="stop-color:#03A9F4"/>
		<stop  offset="1" style="stop-color:#3F51B5"/>
	</linearGradient>
	<path class="st0" d="M216.4,168l-31.1-3.6c-7.5-0.9-14.8,1.7-20.1,7L142.7,194C108,176.4,79.6,148.1,62,113.3l22.7-22.7
		c5.3-5.3,7.8-12.6,7-20.1l-3.6-30.9C86.6,27.3,76.2,18,63.7,18H42.5C28.7,18,17.2,29.5,18,43.4C24.5,148,108.1,231.5,212.6,238
		c13.8,0.9,25.4-10.7,25.4-24.5v-21.2C238.1,179.9,228.8,169.5,216.4,168z"/>

		<linearGradient id="SVGID_00000071540826340603800090000014619715901110550699_" gradientUnits="userSpaceOnUse" x1="11.5192" y1="195.0039" x2="89.8532" y2="174.0143" gradientTransform="matrix(1 0 0 -1 0 258)">
		<stop  offset="0.25" style="stop-color:#03A9F4"/>
		<stop  offset="1" style="stop-color:#3F51B5"/>
	</linearGradient>
	<path style="fill:url(#SVGID_00000071540826340603800090000014619715901110550699_);" d="M42.5,18C28.7,18,17.2,29.5,18,43.4
		c2,31.8,11.1,61.7,25.8,88.1L62,113.3l22.7-22.7c5.3-5.3,7.8-12.6,7-20.1l-3.6-30.9C86.6,27.3,76.2,18,63.7,18H42.5z"/>

		<linearGradient id="SVGID_00000072251591132362766870000007832200373765317512_" gradientUnits="userSpaceOnUse" x1="132.3214" y1="74.9899" x2="239.3513" y2="46.3113" gradientTransform="matrix(1 0 0 -1 0 258)">
		<stop  offset="0.25" style="stop-color:#03A9F4"/>
		<stop  offset="1" style="stop-color:#3F51B5"/>
	</linearGradient>
	<path style="fill:url(#SVGID_00000072251591132362766870000007832200373765317512_);" d="M212.6,238c13.8,0.9,25.4-10.7,25.4-24.5
		v-21.2c0.1-12.4-9.2-22.8-21.6-24.2l-31.1-3.6c-7.5-0.9-14.8,1.7-20.1,7l-40.7,40.7C150.9,226.8,180.8,236,212.6,238z"/>
</g>
<g id="레이어_2_00000066482676002333250400000017049088380675411125_">
</g>
</svg>
