<?xml version="1.0" encoding="utf-8"?>
<!-- Generator: Adobe Illustrator 28.1.0, SVG Export Plug-In . SVG Version: 6.00 Build 0)  -->
<svg version="1.1" id="레이어_1" xmlns="http://www.w3.org/2000/svg" xmlns:xlink="http://www.w3.org/1999/xlink" x="0px"
	 y="0px" viewBox="0 0 140 140" style="enable-background:new 0 0 140 140;" xml:space="preserve">
<style type="text/css">
	.st0{fill:#FFA000;}
	.st1{fill:#F57C00;}
	.st2{fill:#FFCA28;}
	.st3{fill:#FFFFFF;fill-opacity:0.2;}
	.st4{opacity:0.2;fill:#A52714;enable-background:new    ;}
	.st5{fill:url(#b_00000093157574016397278380000014313155063753254800_);}
</style>
<path class="st0" d="M19.1,113L36.3,2.7C36.6,1.3,37.6,0.3,39,0s2.7,0.4,3.3,1.6l17.8,33.2l7.1-13.5c0.6-1,1.6-1.7,2.8-1.7
	s2.3,0.7,2.8,1.7l48.1,91.6L19.1,113L19.1,113z"/>
<path class="st1" d="M78.6,70L60.1,34.9l-41,78.1L78.6,70z"/>
<path class="st2" d="M120.9,113l-13.2-81.7c-0.2-1.2-1-2.1-2.2-2.5s-2.4-0.1-3.2,0.8L19.1,113l46.1,25.8c2.9,1.6,6.4,1.6,9.3,0
	L120.9,113L120.9,113z"/>
<path class="st3" d="M107.7,31.3c-0.2-1.2-1-2.1-2.2-2.5s-2.4-0.1-3.2,0.8L85.8,46.1l-13-24.7c-0.6-1-1.6-1.7-2.8-1.7
	s-2.3,0.7-2.8,1.7l-7.1,13.5L42.3,1.7c-0.6-1.2-2-1.9-3.3-1.6s-2.4,1.3-2.6,2.7L19.1,113h-0.1l0.1,0.1l0.5,0.2l82.8-82.9
	c0.8-0.8,2.1-1.1,3.2-0.8c1.1,0.4,2,1.3,2.2,2.5l13.1,80.9l0.1-0.1L107.7,31.3L107.7,31.3z M19.3,112.8L36.3,3.5
	c0.2-1.4,1.3-2.4,2.6-2.7s2.7,0.4,3.3,1.6l17.8,33.2l7.1-13.5c0.6-1,1.6-1.7,2.8-1.7s2.3,0.7,2.8,1.7l12.7,24.2L19.3,112.8
	L19.3,112.8z"/>
<path class="st4" d="M74.5,138c-2.9,1.6-6.4,1.6-9.3,0l-46-25.8l-0.1,0.7l46.1,25.8c2.9,1.6,6.4,1.6,9.3,0l46.5-25.8l-0.1-0.7
	L74.5,138L74.5,138z"/>
<g>
	
		<linearGradient id="b_00000127026597274068651200000001581225767225494433_" gradientUnits="userSpaceOnUse" x1="-56.4869" y1="198.4286" x2="-55.3726" y2="197.6181" gradientTransform="matrix(95 0 0 -130.9998 5382 26017.9688)">
		<stop  offset="0" style="stop-color:#FFFFFF;stop-opacity:0.1"/>
		<stop  offset="0.14" style="stop-color:#FFFFFF;stop-opacity:8.000000e-02"/>
		<stop  offset="0.61" style="stop-color:#FFFFFF;stop-opacity:2.000000e-02"/>
		<stop  offset="1" style="stop-color:#FFFFFF;stop-opacity:0"/>
	</linearGradient>
	<path id="b" style="fill:url(#b_00000127026597274068651200000001581225767225494433_);" d="M107.6,31.3c-0.2-1.2-1-2.1-2.2-2.5
		c-1.1-0.4-2.4-0.1-3.2,0.8L85.8,46.1L72.8,21.4c-0.5-1-1.6-1.7-2.8-1.7s-2.3,0.7-2.8,1.7l-7.1,13.5L42.4,1.7
		c-0.6-1.2-2-1.9-3.3-1.6c-1.3,0.2-2.4,1.3-2.6,2.7L19.3,112.9l45.9,25.8c2.9,1.6,6.4,1.6,9.3,0l46.3-25.8L107.6,31.3L107.6,31.3z"
		/>
</g>
</svg>
