<?xml version="1.0" encoding="utf-8"?>
<!-- Generator: Adobe Illustrator 28.1.0, SVG Export Plug-In . SVG Management: 6.00 Build 0)  -->
<svg version="1.1" id="레이어_1" xmlns="http://www.w3.org/2000/svg" xmlns:xlink="http://www.w3.org/1999/xlink" x="0px"
	 y="0px" viewBox="0 0 1024 1024" style="enable-background:new 0 0 1024 1024;" xml:space="preserve">
<style type="text/css">
	.st0{opacity:0.8;}
	.st1{clip-path:url(#SVGID_00000013908548194177703240000004602406316031181755_);fill:#3E3A39;}
	.st2{clip-path:url(#SVGID_00000034789151265691921740000017644491307773887619_);fill:#3E3A39;}
	.st3{clip-path:url(#SVGID_00000102507331310132359860000008421529126140534173_);fill:#3E3A39;}
	.st4{clip-path:url(#SVGID_00000129199576447221317020000012936717725423781812_);fill:#3E3A39;}
	.st5{fill:#F08437;}
	.st6{opacity:0.71;}
	.st7{clip-path:url(#SVGID_00000039093179052094160060000001264023447790712730_);fill:#4ACCBA;}
	.st8{fill:#EBBDD6;}
	.st9{fill:#78529E;}
	.st10{fill:#C74A3B;}
	.st11{fill:none;stroke:#C74A3B;stroke-width:1.275;stroke-miterlimit:10;}
	.st12{fill:#E8E85C;}
	.st13{fill:#FCFCFA;}
	.st14{fill:#00031F;}
	.st15{fill:#128278;}
	.st16{fill:#C7E8F5;}
	.st17{fill:none;stroke:#241714;stroke-width:0.319;stroke-miterlimit:10;}
</style>
<g class="st0">
	<g>
		<defs>
			<rect id="SVGID_1_" x="-0.2" y="247.7" width="889.2" height="47.5"/>
		</defs>
		<clipPath id="SVGID_00000139999851559140337430000007063945669912298124_">
			<use xlink:href="#SVGID_1_"  style="overflow:visible;"/>
		</clipPath>
		<path style="clip-path:url(#SVGID_00000139999851559140337430000007063945669912298124_);fill:#3E3A39;" d="M444.4,290.6
			c244.1,0,442.1-8.4,442.1-18.8c0-10.4-197.9-18.8-442.1-18.8S2.3,239.8,2.3,271.8C2.3,302,200.3,290.6,444.4,290.6"/>
	</g>
</g>
<g class="st0">
	<g>
		<defs>
			<rect id="SVGID_00000183238832146291381170000004743576926261777083_" x="104" y="604.1" width="889.2" height="47.4"/>
		</defs>
		<clipPath id="SVGID_00000077319812813525745020000018145568262730496646_">
			<use xlink:href="#SVGID_00000183238832146291381170000004743576926261777083_"  style="overflow:visible;"/>
		</clipPath>
		<path style="clip-path:url(#SVGID_00000077319812813525745020000018145568262730496646_);fill:#3E3A39;" d="M548.6,646.9
			c244.1,0,442.1-8.4,442.1-18.8c0-10.4-197.9-18.8-442.1-18.8s-442.1-13.2-442.1,18.8C106.6,658.3,304.5,646.9,548.6,646.9"/>
	</g>
</g>
<g class="st0">
	<g>
		<defs>
			<rect id="SVGID_00000072274645257770886990000013325519122306770092_" x="64.3" y="335" width="785.2" height="42.5"/>
		</defs>
		<clipPath id="SVGID_00000134936960070682153830000007607458787432134028_">
			<use xlink:href="#SVGID_00000072274645257770886990000013325519122306770092_"  style="overflow:visible;"/>
		</clipPath>
		<path style="clip-path:url(#SVGID_00000134936960070682153830000007607458787432134028_);fill:#3E3A39;" d="M456.9,339.4
			c-215.4,0-390.1,7.4-390.1,16.6c0,9.2,174.6,16.6,390.1,16.6S847,384.3,847,356C847,329.3,672.3,339.4,456.9,339.4"/>
	</g>
</g>
<g class="st0">
	<g>
		<defs>
			<rect id="SVGID_00000152240647071269790990000016466114428271261333_" x="184.3" y="701.4" width="883.6" height="47.5"/>
		</defs>
		<clipPath id="SVGID_00000057871150651395723800000001344574232366155137_">
			<use xlink:href="#SVGID_00000152240647071269790990000016466114428271261333_"  style="overflow:visible;"/>
		</clipPath>
		<path style="clip-path:url(#SVGID_00000057871150651395723800000001344574232366155137_);fill:#3E3A39;" d="M626.1,706
			c-242.6,0-439.3,8.4-439.3,18.8c0,10.4,196.7,18.8,439.3,18.8s439.3,13.2,439.3-18.8C1065.3,694.6,868.7,706,626.1,706"/>
	</g>
</g>
<path class="st5" d="M512,896c212.1,0,384-171.9,384-384c0-212.1-171.9-384-384-384S128,299.9,128,512C128,724.1,299.9,896,512,896"
	/>
<g class="st6">
	<g>
		<defs>
			<rect id="SVGID_00000133507648814525642180000009009771179915162806_" x="378" y="773.7" width="281.9" height="60.4"/>
		</defs>
		<clipPath id="SVGID_00000164515025290712607280000010078055696572347563_">
			<use xlink:href="#SVGID_00000133507648814525642180000009009771179915162806_"  style="overflow:visible;"/>
		</clipPath>
		<path style="clip-path:url(#SVGID_00000164515025290712607280000010078055696572347563_);fill:#4ACCBA;" d="M518.9,825
			c71,13.6,138.4,4.8,138.4-23.1c0-27.9-62.8-34.1-141-13.4c-77.6-17.9-135.9-14.6-135.9,13.4C380.5,829.8,439.5,839.3,518.9,825"/>
	</g>
</g>
<path class="st8" d="M672.2,365.9c0,0,8.2-20.3,19.4-35.3c11.2-15.1,18.9-21.8,33-28.6c14.2-6.8,24.3-3.5,26.1-1.8
	c1.8,1.8,6.4,2.6,5.8,8.4c-2.1,8.5-0.8,3.6-3.3,8.4c-4,7.7-6.9,10.3-14.2,16.2c-7.3,5.9-16.9,12-19.6,14.8c-3.4,3.6-7.6,5.9,2.2,1.2
	c9.8-4.7,15.2-9.1,22.9-12.7c7.6-3.5,11.2-7.1,20-8c8.7-0.9,16-0.9,18.5,1.2c2.5,2.1,4.7,7.1,4.4,11.5c-0.4,4.4-5.4,9.2-9.4,12.4
	c-4,3.2-11.6,4.7-18.9,8.3c-7.3,3.5-17.1,6.8-23.9,8c-6.9,1.2-10.5,1.2-10.5,3c0,1.8,7.3-0.6,16-1.5c8.7-0.9,10.9-2.4,21-0.9
	c10.2,1.5,10.4,1,13.8,6.2c3.1,4.7,1.6,4.6-1.5,8.9c-3.9,5.4-6.5,7.7-14.5,10.3c-8,2.7-7.6,2.7-18.9,4.7c-11.2,2.1-9.8,3.5-21.8,4.1
	c-12,0.6-25,1.1-27.9,0.1c-2.9-0.9-11.5-22.6-11.5-22.6C674.9,373.1,672.2,365.9,672.2,365.9"/>
<path class="st8" d="M332,380.5c-3-7.1-9.8-15.5-15.5-22.4c-5.7-6.9-15.8-15.9-21.8-21.3c-6-5.3-14.5-9.4-21.8-14.8
	c-7.2-5.3-10.4-6.6-18.4-7.8c-10.2-1.5-8.6-1-14.6,1.6c-6,2.7-7.5,10.4-7.5,10.4c1.1,7.7,1.9,10.2,7.3,15.1
	c5.4,4.9,13.9,10.2,19.9,13.7c6,3.5,15.5,8,16.1,10.8c0.5,2.9,0.3,1.8-5.7-0.9c-6-2.7-4.3-2.5-12-6.2c-9.1-4.4-11.4-5.8-16.8-7.2
	c-7.3-2-7.3-2.4-12.3-3.4c-3.3-0.7-7.1-0.8-13-0.4c-5.7,0.4-8.8-0.1-12.8,5.5c-3,4.2-5.4,7.3-1,13.3c4.5,6.2,2.7,4.8,11.4,10.2
	c9.9,6,7.8,3.5,17.5,6.5c10.5,3.3,4.7,1.2,16.6,3.7c11.4,2.4,23.7,2.3,16.9,3.4c-6.7,1.1-1.5,0.8-12.9,1
	c-11.4,0.2-12.7-0.2-18.3,0.7c-7.2,1.9-9.6,1.7-11.2,9c-1.9,8.1,2.6,12,6.3,13.6c9.3,3.9,2.4,1.6,11.6,4.7c9.3,3.1,5,1,18.1,3.2
	c11.6,1,11.6,1,22.9,1.3c14.8-0.8,12.1,0.8,26-1.3c12.5-1.9,10.9-1.5,22.9-3.5C344.2,416.6,335,387.6,332,380.5"/>
<path class="st9" d="M345.3,571.5c0,0-95.2-17.8-124.5-108.4c-29.3-90.5-5.1-153,74.1-193.4c79.2-40.5,156-31.8,156-31.8
	c2.4-1.7,5.9-4.5,8.3-8.8c2.8-5,1.8-7.5,4.9-11.1c3.6-4.2,10.5-7.4,13.7-5.5c3.9,2.3,1.5,11.3,0.8,13.9c-2.1,7.9-6,10.9-4.7,12.3
	c1.4,1.5,7.1-0.6,28.9-7.9c5.3-1.8,9.2-3,11.8-1.3c2.8,1.9,2.6,6.6,1.9,9.1c-3.3,11.3-27.4,13.7-28.9,13.9
	c4.8-0.1,10.1-0.2,15.9-0.2c0,0,21.1,0,24.9,4.5c0.1,0.2,0.2,0.3,0.3,0.5c1.1,1.8,1.4,4.3,0.4,6.2c-1.8,3.2-10,4.2-19.2,4.4
	c-6.7,0.1-15.9-0.2-27.1-1.8c1.8,0.5,20.8,5.9,21.1,13.6c0,0.5,0.1,2.4-1.3,3.7c-2.3,2.2-7.1,0.9-12.5-0.3c-4.5-1-10.9-2.4-19.2-3.6
	c6.8,3.7,9.5,10.3,7.1,14.9c-1.9,3.8-7.3,6.5-11.1,5.4c-2.2-0.6-3-2.2-5.9-5.9c-3-3.8-5.9-6.8-8.2-9.1c-11.2-4.8-35.5-13.4-65.6-9.5
	c-31.8,4.1-52.2,19.9-67.4,31.7c-13.9,10.8-39.7,30.8-51.9,65.2c-13.9,39.3-8.3,92.6,28,122.4c5.1,4.2,39.6,20.2,43.5,22
	c0,0,4.1,1.9,4.1,1.9"/>
<path class="st10" d="M489.6,333.6c-7.5-6.1-14.8-16.6-20.7-25.3c-5.9-8.7-12.5-22.6-16.3-30.9c-3.8-8.3-5-18.4-8.2-28
	c-3.2-9.5-3.3-13.2-1-21.6c2.9-10.7,2.8-8.9,9-13.6c6.2-4.7,16.6-2.7,16.6-2.7c9.2,4.6,11.9,6.4,15.4,14c3.5,7.5,6.2,18.2,7.7,25.6
	c1.6,7.5,2.6,18.8,6,20.6c3.4,1.8,2.1,1.1,1.6-6c-0.5-7.1-1.1-5.4-2.1-14.5c-1.1-10.9-1.8-13.8-1.1-19.7c1-8.1,0.5-8.2,1.6-13.6
	c0.7-3.5,2.4-7.3,5.6-12.9c3.2-5.4,4.1-8.7,12.9-10.1c6.7-1.1,11.7-2,17.1,5c5.6,7.2,4.8,4.8,7.3,15.8c2.8,12.4,0.6,9.2-0.2,20.1
	c-0.9,11.8-0.8,5.2-3.3,17.9c-2.4,12.3-8.4,24.3-3.8,18.1c4.6-6.1,1.7-1.1,7.4-12.2c5.7-11.1,5.8-12.5,9.7-17.6
	c5.8-6.2,6.7-8.6,16.7-7c11,1.8,13.9,7.9,14.1,12.2c0.5,10.9,0.9,3,0.4,13.5c-0.5,10.5-1.1,5.4-4.5,19.2c-4.2,11.8-4.2,11.8-9.2,23
	c-8.1,14.2-4.8,12.2-14.1,24.9c-8.4,11.4-7,10-15.4,20.9C529,361.8,497.1,339.7,489.6,333.6"/>
<path class="st11" d="M489.6,333.7c-7.5-6.1-14.8-16.6-20.7-25.3c-5.9-8.7-12.5-22.7-16.3-31c-3.8-8.3-5-18.5-8.3-28.1
	c-3.2-9.5-3.3-13.2-1-21.6c2.9-10.7,2.8-8.9,9-13.6c6.2-4.7,16.7-2.7,16.7-2.7c9.2,4.6,11.9,6.5,15.4,14c3.5,7.5,6.2,18.2,7.8,25.7
	c1.6,7.5,2.6,18.8,6,20.7c3.4,1.8,2.1,1.1,1.6-6c-0.5-7.1-1.1-5.4-2.1-14.6c-1.1-10.9-1.8-13.8-1.1-19.7c1-8.1,0.5-8.2,1.6-13.7
	c0.7-3.6,2.4-7.4,5.6-12.9c3.2-5.4,4.1-8.7,13-10.1c6.7-1.1,11.8-2,17.2,5c5.6,7.3,4.8,4.8,7.3,15.8c2.8,12.5,0.6,9.2-0.2,20.1
	c-0.9,11.8-0.8,5.2-3.3,18c-2.4,12.3-8.4,24.3-3.8,18.1c4.6-6.1,1.7-1.1,7.5-12.2c5.7-11.1,5.9-12.5,9.7-17.7
	c5.8-6.2,6.7-8.6,16.7-7c11,1.8,13.9,8,14.1,12.3c0.5,10.9,0.9,3,0.4,13.5c-0.5,10.5-1.1,5.4-4.5,19.2c-4.3,11.9-4.3,11.9-9.3,23.1
	c-8.1,14.2-4.8,12.3-14.1,25c-8.4,11.4-7.1,10-15.4,20.9C529.1,362,497,339.8,489.6,333.7z"/>
<path class="st12" d="M524.5,295.4c76.2,1.6,111.1,28,118.5,34.3c6.7,5.7,20.7,9.8,33.7,37.3c1.4,2.9,2.7,6,4,9.6
	c14.2,37.5,12.6,41.2,17.4,87.1c4.8,45.9,5.6,74.5,4.5,112.8c-1,38.4-3.7,80.5-21,101.2c-17.3,20.7-26.7,30.4-60.8,49.6
	s-87.4,20.5-116.3,18.7c-28.9-1.8-65.7,8.6-102.9-24.4c-37.2-33-50.3-53.1-55.7-80.4c-5.3-27.4-11-43.6-12.8-88.2
	c-1.8-44.6-7.1-74.5-6.2-107.9c0.9-33.4,7.1-46.3,17.2-71.5c6.2-15.5,13.1-27.5,39.7-47c32.2-23.5,37.6-22.3,69.7-26.6
	C485.8,295.6,524.5,295.4,524.5,295.4"/>
<path class="st13" d="M504.2,358.1c14.9-1.1,28.8-0.3,37.4,3c8.2,3.2,10.7,3.2,18.7,9.2c7.6,5.7,15.3,11.7,20,19.2
	c6.7,10.7,11.6,18.6,12.2,27.5c0.9,11.8,1,7.5,0.3,18.9c-0.7,10.7-5,20.1-6.2,22c-6.2,9.7-5.1,10-10.5,16.8
	c-5.4,6.8-8.7,10.6-20.7,15.6c-12,5-16.2,7.9-32.9,8.2c-16.7,0.3-26.3-1.6-39.5-5.9c-16.7-5.4-24.7-8.6-34.5-26
	c-9.8-17.4-12.3-23.9-11.2-40.1c1.1-16.2,5.6-25.4,12.4-35.2c7.6-10.9,9.7-14,20.3-21.3C484.7,359.7,487.5,359.4,504.2,358.1"/>
<path class="st14" d="M513,388.7c15.5,0.9,21.8,1.4,30,10.3c8.3,9.2,10.9,16.5,10.9,26c-0.1,11.8,1.8,17.4-5.8,26.9
	c-7.6,9.4-9.6,11.4-21,14.5c-7.6,2.1-26.3,1.5-33.6-6.2c-7.3-7.7-9.3-8-13.2-19.8c-4-11.8-6-14.5-1.6-26
	c4.3-11.4,5.7-12.2,12.2-17.7c4.4-3.7,7.6-4.4,7.6-4.4L513,388.7z"/>
<path class="st15" d="M481.7,787.5L481.7,787.5c0,0,0-5.7,0-7.3c0.1-1.6-0.5-9-0.8-11.6s-0.6-10-1-17c-0.4-7-0.2-3.5-0.2-4.1
	c0-0.6-11.6,0.5-24.3-1.5c-12.7-2-26.5-8.5-26.5-8.5l1.3,28.1l2.2,19.8c0,0,1.1,8.1,1.2,8.7c0.3,1.5,2.5,2.8,3.4,3
	c1.7,0.4,3.2,0.7,4.6,0.6c1.5-0.2,2.9-0.6,4.3-1.6c2.1-1.3,2.6-2.1,2.9-4.2c0.2-1.4,0.4-2.3,0.3-3.9c-0.1-1.1,0.2-2.1,0.3-2.4
	c0.1-0.3,0.3,0.1,1.1,1.8c0.8,1.7,0.7,2.2,1,2.7c0.3,0.5,0.3,1,0.8,2c0.5,1,1,3.5,2.1,4.6c1,1.1,2.5,0.6,3.9,0.7
	c1.6,0,3.3-0.1,3.9-0.5c0.6-0.4,0.9-1.2,1.3-2.4c0.6-2,0.5-2.9,0.9-3.9c0.4-0.9,0.2-2.3,0.7-3.4c0.5-1.1,0.6-1.5,1-1.2
	c0.4,0.3,0.8,1.3,1.4,3.2c0.6,1.9,1,3.2,1.5,4.2c0.6,1.1,0.6,1.9,1.6,2.7c0.5,0.4,1.6,0.8,2.3,1.1c0.8,0.2,1.9,0.3,3.9-0.2
	c2-0.4,3.2-1.7,3.9-3.2C481.8,792.2,481.8,788.7,481.7,787.5"/>
<path class="st15" d="M616.2,751.1c0-2.3-0.6-7.7-0.6-7.4c0,2.2-0.4-11.5-0.4-11.5l-22,7.1l-23.3,4c0.2,2.1,0,10,0,14.6
	c0,4.6,0.1,11.7,0,14.4c-0.1,2.8-0.2,7,0,9.2c0.2,2.2,0.2,5.1,0.8,7c0.6,2,2.1,2.8,2.8,3.4c0.8,0.7,2.2,1.4,3.3,1.5
	c2,0.2,4.5,0.3,5.7,0.1c1.2-0.2,2.1-1.5,2.6-2.7c0.3-0.7,0.9-1.9,1.3-3c0.4-1.2,0.7-2.5,1.1-4c0.3-1.2,1.1-1.9,1.9-2
	c0.8,0,1.5,0.7,1.5,2.6c0,1.9-0.7,4.9-0.5,6.5c0.1,1.6,0.2,2.9,1.9,3.3c1.5,0.4,3.7,0.4,4.6,0.4c0.9,0,2.3-0.1,3.6-0.4
	c1.2-0.3,1-1.7,1.3-2.7c0.2-0.9,0.3-2.3,0.2-3.3c0.1-1.4-0.2-2.4-0.1-3.3c0-0.9,0.1-1.8,0.2-3c0-0.6,0.3-1,0.6-0.9
	c0.4,0.2,0.8,1,1.3,2.9c0.5,1.9,0.6,2.5,0.8,3.1c0.1,0.5,0.3,0.9,0.6,2.2c0.2,1,0.5,2.3,1.4,3.4c0.9,1,2.5,1.8,5.4,1.5
	c2-0.2,3.6-0.1,4.5-0.6c1.3-0.7,2.2-2.2,1.7-4.8c-0.4-2.5-0.4-4.1-0.7-6.8c-0.2-2.4-0.4-8.4-0.4-10.2c0-1.8-0.4-7.8-0.6-9.6
	C616.4,760.6,616.5,753.7,616.2,751.1"/>
<path class="st16" d="M438.5,505.6l-6,1.3c0,0-4.4,0.6-9.3,0c-6.5-0.8-7.7,1-13.9-6.6c-4.5-5.4-4.5-10.1-1.8-17.1
	c2-5.1,4.1-7,14.6-11.8C422,471.5,428.9,481,438.5,505.6"/>
<path class="st17" d="M438.5,505.6l-6,1.3c0,0-4.4,0.6-9.4,0c-6.5-0.8-7.8,1-14-6.6c-4.5-5.4-4.5-10.1-1.8-17.1
	c2-5.1,4.1-7,14.7-11.8C422,471.4,429,481,438.5,505.6z"/>
<path class="st16" d="M469.5,531.5c0,0-5.1,4.1-9,7c-3.9,2.9-8.8,3.3-16.6,2c-7.8-1.3-9.4-2.7-12.4-6.6c-3-4-2.9-8-2.7-12.1
	c0.2-4.8,7.3-9.1,11.8-14.3C440.5,507.5,453.9,516.5,469.5,531.5"/>
<path class="st17" d="M469.6,531.5c0,0-5.1,4.1-9.1,7c-3.9,2.9-8.8,3.3-16.7,2c-7.9-1.3-9.5-2.7-12.5-6.7c-3-4-2.9-8-2.7-12.1
	c0.2-4.8,7.3-9.1,11.9-14.3C440.5,507.4,453.9,516.4,469.6,531.5z"/>
<path class="st16" d="M564.8,534.1c0,0,3.9,12,0.2,16.6c-2.9,3.6-4.7,6.6-11.7,8.4c-7,1.7-14.7,2.7-19.8,1.3c-5-1.3-3.9-1.3-7-2.6
	c-3.1-1.3-5.8-7.3-5.8-7.3s0-1.3-2.1-6.8C518.5,543.6,554.8,538.1,564.8,534.1"/>
<path class="st17" d="M564.8,534c0,0,4,12.1,0.2,16.6c-3,3.6-4.7,6.7-11.7,8.4c-7,1.7-14.7,2.7-19.8,1.3c-5-1.3-3.9-1.3-7-2.6
	c-3.1-1.3-5.9-7.4-5.9-7.4s0-1.3-2.1-6.9C518.5,543.6,554.8,538.1,564.8,534z"/>
<path class="st16" d="M599.5,504.9c0,0,12.9,1.8,18-2c5.2-3.8,5.6-4.1,6.4-10c1.3-9.7,0.8-6.7-1.5-11.8c-2.8-6.3-10.3-7.3-10.3-7.3
	S602.4,497.1,599.5,504.9"/>
<path class="st17" d="M599.4,504.9c0,0,12.9,1.8,18.1-2c5.2-3.8,5.6-4.1,6.4-10.1c1.3-9.8,0.8-6.7-1.5-11.9
	c-2.8-6.3-10.4-7.3-10.4-7.3S602.4,497.1,599.4,504.9z"/>
<path class="st16" d="M597.8,507c0,0,9.5,2,11.4,9.1c0.6,2.4,0.5,8-1.7,12.2c-3.9,7.4-8.8,14.1-18.1,14.4
	c-8.1,0.3-18.7-9.2-24.3-9.4C565.1,533.4,589.7,523.2,597.8,507"/>
<path class="st17" d="M597.7,506.9c0,0,9.6,2,11.5,9.2c0.6,2.4,0.5,8.1-1.7,12.3c-3.9,7.5-8.8,14.1-18.2,14.5
	c-8.1,0.3-18.8-9.2-24.4-9.4C564.9,533.4,589.6,523.2,597.7,506.9z"/>
<path class="st14" d="M614.4,468.2c0,10.4-4.1,18.1-8.6,28.7c-4.5,10.6-10.8,19.7-19.4,25.9c-10.5,7.6-22.5,13.2-38.8,18.4
	c-13.5,4.3-20.4,3.6-40.1,2.3c-19.7-1.3-33.1-8.8-45.8-15.8c-12.7-7-15.9-11.7-27.1-27.2c-11.1-15.5-11.5-22.5-14-31.1h3.5l5,13.7
	c0,0,5.4,10.1,9,16.1c3.3,5.4,10.9,15.3,18.2,20.2c7.3,4.9,18.9,13.5,27,16.6c8,3.1,17.2,4,25.2,4.8c12.4,1.3,27-0.6,28-0.6
	c1.6,0,19.4-4.4,25.8-7c6.5-2.6,15.9-7,20-11.2c4.1-4.2,5.5-2.4,11.8-12.4c6.4-10.1,6.4-10,10.5-20c4.1-10,5.7-20.4,5.1-21.4
	C609,467.2,614.4,468.2,614.4,468.2"/>
<path class="st16" d="M519.1,544.6c-1.7,1.3-2.9,5.4-5.9,8.9c-3,3.6-2.1,4.4-11.6,7c-5.6,1.5-10.6,0.7-16.9-0.7
	c-10.1-2.2-9.4-4.4-12.6-7.3c-6.3-5.8-2.9-12.9-1.1-18.8C471,533.7,494.4,543.8,519.1,544.6"/>
<path class="st17" d="M519.3,544.6c-1.7,1.3-2.9,5.4-5.9,9c-3,3.6-2.1,4.4-11.7,7.1c-5.6,1.5-10.7,0.7-16.9-0.7
	c-10.1-2.3-9.4-4.4-12.6-7.4c-6.3-5.8-2.9-12.9-1.1-18.9C471,533.7,494.4,543.7,519.3,544.6z"/>
<path class="st9" d="M698.7,474c5.2,0.8,89.2,15.2,117.2,75c19,40.6,0.2,76.6-2.9,82.4c-18.7,34.1-52.2,49.8-62.5,54.4
	c-16.8,7.5-34.8,11.5-37.8,12.1c-13.5,2.9-24.3,3.7-35.3,4.6c-18.1,1.4-24.9,0.6-45.9,2.5c-8.5,0.7-15.4,1.6-20,2.2
	c-2.4,0.8-5.8,2.2-8.9,4.8c-2,1.8-1.7,2.2-3.8,4c-4.6,3.9-9.5,5.5-12.4,6.3c-4.6,1.3-6.3,0.8-6.9,0.6c-2.4-1-3.5-3.5-3.5-5.4
	c0.2-4.8,7.3-7.6,6.7-8.4c-0.7-0.9-10,2.1-24.2,6.2c-4.9,1.4-8.4,2.3-10.9,1c-2.6-1.3-2.5-4.6-1.9-6.4c2.9-8,25.2-9.9,26.6-10
	c-4.5,0.1-9.4,0.3-14.7,0.3c0,0-19.5,0.2-23.2-2.9c-0.1-0.1-0.2-0.2-0.3-0.3c-1.1-1.3-1.4-3-0.5-4.3c1.6-2.3,9.2-3.1,17.8-3.3
	c6.2-0.1,14.8,0,25.2,1c-1.8-0.8-4.6-2.1-8.2-3.5c-6.3-2.4-8.6-2.8-11.3-4.9c-2.2-1.7-5.3-5.2-3.9-7.1c2-2.7,12.8-0.6,17.5,0.3
	c8.7,1.7,15.3,4.3,19.5,6.3c-7-5.1-10.2-11-7.8-15c0.9-1.5,3-3.5,5.3-3.4c2.9,0.1,3.8,3.6,7.9,7.7c3,3,6.2,4.9,8.5,6
	c15.3,0.4,37.9,0.2,64.9-3.2c27.8-3.5,42.3-5.4,58.1-13.7c28.8-15.2,37.6-39.2,39.7-45.3c1.1-3.3,10.3-31.6-8.7-60.1
	c-4.7-7-20-29.9-43-30.3c-4.9-0.1-9,0.9-11.9,1.8"/>
</svg>
