<?xml version="1.0" encoding="utf-8"?>
<!-- Generator: Adobe Illustrator 28.1.0, SVG Export Plug-In . SVG Management: 6.00 Build 0)  -->
<svg version="1.1" id="레이어_1" xmlns="http://www.w3.org/2000/svg" xmlns:xlink="http://www.w3.org/1999/xlink" x="0px"
	 y="0px" viewBox="0 0 256 256" style="enable-background:new 0 0 256 256;" xml:space="preserve">
<style type="text/css">
	.st0{fill:#FFFFFF;}
	.st1{fill:url(#SVGID_1_);}

	path {
		-webkit-filter: drop-shadow( 0px 3px 5px rgba(0, 0, 0, .7));
  		filter: drop-shadow( 0px 3px 5px rgba(0, 0, 0, .7));
	}
</style>
<g id="레이어_1_00000016070441276994708070000000132004743230496693_">
	<g id="레이어_2_00000099644993731092744760000002103851359796624520_">
	</g>
</g>
<g id="레이어_2_00000161623684871507418350000012511987909210510210_">
	<path class="st0" d="M216,40H40c-12.1,0-21.9,9.9-21.9,22L18,194c0,12.1,9.9,22,22,22h176c12.1,0,22-9.9,22-22V62
		C238,49.9,228.1,40,216,40z"/>

		<linearGradient id="SVGID_1_" gradientUnits="userSpaceOnUse" x1="42.0758" y1="188.2452" x2="206.9239" y2="144.0742" gradientTransform="matrix(1 0 0 -1 0 258)">
		<stop  offset="0.1" style="stop-color:#FF4081"/>
		<stop  offset="1" style="stop-color:#7C4DFF"/>
	</linearGradient>
	<path class="st1" d="M211.6,86.8l-77.8,48.6c-3.5,2.2-8.1,2.2-11.7,0L44.4,86.8C41.7,85,40,82,40,78.8c0-7.4,8-11.8,14.3-7.9
		L128,117l73.7-46.1c6.3-3.8,14.3,0.6,14.3,7.9C216,82,214.4,85,211.6,86.8z"/>
</g>
</svg>
