<?xml version="1.0" encoding="UTF-8"?>
<svg id="_레이어_1" data-name="레이어 1" xmlns="http://www.w3.org/2000/svg" viewBox="0 0 128 128" fill="currentColor">
  <path d="M64,19.66187c8.6786,0,16.70539,1.68905,24.08036,5.06714,7.37498,3.37809,13.20544,7.97164,17.491,13.78053,4.28576,5.80869,6.42863,12.14489,6.42863,19.0084s-2.14288,13.20841-6.42863,19.03532c-4.28556,5.8267-10.10712,10.42916-17.46428,13.80717-7.35716,3.37801-15.39286,5.06722-24.10708,5.06722-2.74996,0-5.58938-.19675-8.51787-.58985-12.71436,8.82943-19.48206,13.29788-20.3035,13.40496-.39291.14311-.768.12509-1.12508-.05345-.14291-.10728-.25-.25039-.32145-.42913-.07146-.17874-.10708-.33946-.10708-.48257v-.21437c.21437-1.39427,1.83924-7.20297,4.87502-17.42667-6.89288-3.43165-12.36611-7.98047-16.41966-13.64645-4.05357-5.66579-6.08036-11.82325-6.08036-18.47218,0-6.86351,2.14286-13.1997,6.42858-19.0084,4.28572-5.80889,10.11606-10.40244,17.49106-13.78053,7.37498-3.37809,15.40177-5.06714,24.08036-5.06714Z"/>
</svg>