<?xml version="1.0" encoding="utf-8"?>
<!-- Generator: Adobe Illustrator 28.1.0, SVG Export Plug-In . SVG Version: 6.00 Build 0)  -->
<svg version="1.1" xmlns="http://www.w3.org/2000/svg" xmlns:xlink="http://www.w3.org/1999/xlink" x="0px" y="0px"
	 viewBox="0 0 256 256" style="enable-background:new 0 0 256 256" xml:space="preserve">
<style type="text/css">
	.st0{fill:url(#SVGID_1_);}
	.st1{fill:url(#SVGID_00000117654898649055955460000002456931161289699757_);}
	.st2{fill:url(#SVGID_00000031910902795709043670000006804752198171787412_);}

	path {
		-webkit-filter: drop-shadow( 0px 3px 5px rgba(0, 0, 0, .7));
  		filter: drop-shadow( 0px 3px 5px rgba(0, 0, 0, .7));
	}
</style>
<g id="레이어_1">
	<linearGradient id="SVGID_1_" gradientUnits="userSpaceOnUse" x1="18" y1="128" x2="238" y2="128">
		<stop  offset="0.25" style="stop-color:#03A9F4"/>
		<stop  offset="1" style="stop-color:#3F51B5"/>
	</linearGradient>
	<path class="st0" d="M216.4,168l-31.1-3.6c-7.5-0.9-14.8,1.7-20.1,7L142.7,194c-34.7-17.6-63.1-45.9-80.7-80.7l22.7-22.7
		c5.3-5.3,7.8-12.6,7-20.1l-3.6-30.9C86.6,27.3,76.2,18,63.7,18l-21.2,0C28.7,18,17.2,29.5,18,43.4
		c6.5,104.6,90.1,188.1,194.6,194.6c13.8,0.9,25.4-10.7,25.4-24.5l0-21.2C238.1,179.9,228.8,169.5,216.4,168z"/>

		<linearGradient id="SVGID_00000027574519307846388920000011683240751612499635_" gradientUnits="userSpaceOnUse" x1="11.5424" y1="62.9629" x2="89.843" y2="83.9435">
		<stop  offset="0.1" style="stop-color:#FF4081"/>
		<stop  offset="1" style="stop-color:#7C4DFF"/>
	</linearGradient>
	<path style="fill:url(#SVGID_00000027574519307846388920000011683240751612499635_);" d="M42.5,18C28.7,18,17.2,29.5,18,43.4
		c2,31.8,11.1,61.7,25.8,88.1L62,113.3l22.7-22.7c5.3-5.3,7.8-12.6,7-20.1l-3.6-30.9C86.6,27.3,76.2,18,63.7,18L42.5,18z"/>

		<linearGradient id="SVGID_00000068674476884256267440000005958943797095047854_" gradientUnits="userSpaceOnUse" x1="132.3771" y1="182.9826" x2="239.3589" y2="211.6483">
		<stop  offset="5.000000e-02" style="stop-color:#FF4081"/>
		<stop  offset="0.75" style="stop-color:#7C4DFF"/>
	</linearGradient>
	<path style="fill:url(#SVGID_00000068674476884256267440000005958943797095047854_);" d="M212.6,238c13.8,0.9,25.4-10.7,25.4-24.5
		l0-21.2c0.1-12.4-9.2-22.8-21.6-24.2l-31.1-3.6c-7.5-0.9-14.8,1.7-20.1,7l-40.7,40.7C150.9,226.8,180.8,236,212.6,238z"/>
</g>
<g id="레이어_2">
</g>
</svg>
