<?xml version="1.0" encoding="utf-8"?>
<!-- Generator: Adobe Illustrator 28.1.0, SVG Export Plug-In . SVG Version: 6.00 Build 0)  -->
<svg version="1.1" id="레이어_1" xmlns="http://www.w3.org/2000/svg" xmlns:xlink="http://www.w3.org/1999/xlink" x="0px"
	 y="0px" viewBox="0 0 369 512" style="enable-background:new 0 0 369 512;" xml:space="preserve">
<style type="text/css">
	.st0{fill:#E44D26;}
	.st1{fill:#F16529;}
	.st2{fill:#EBEBEB;}
	.st3{fill:#FFFFFF;}
</style>
<path class="" d="M36.9,0h23v22.8h21.2V0h23v69h-23V46h-21v23H36.9 M134.5,23h-20.3V0h63.7v23h-20.4v46h-23 M188,0h24.1l14.8,24.3L241.7,0
	h24.1v69h-23V34.8l-16.1,24.8l-16.1-24.8V69H188 M277.2,0h23v46.2h32.6V69h-55.6"/>
<path class="st0" d="M36.1,471l-33-370.4h362.8l-33,370.2L184.2,512"/>
<path class="st1" d="M184.5,480.5V131h148.3l-28.3,316"/>
<path class="st2" d="M70.5,176.3h114v45.4h-64.2l4.2,46.5h60v45.3H82.9 M84.9,336.3h45.6l3.2,36.3l50.8,13.6v47.4l-93.2-26"/>
<path class="st3" d="M298.1,176.3H184.3v45.4h109.6 M289.8,268.2H184.3v45.4h56l-5.3,59l-50.7,13.6v47.2l93-25.8"/>
</svg>
