<?xml version="1.0" encoding="utf-8"?>
<!-- Generator: Adobe Illustrator 28.1.0, SVG Export Plug-In . SVG Management: 6.00 Build 0)  -->
<svg version="1.1" id="레이어_1" xmlns="http://www.w3.org/2000/svg" xmlns:xlink="http://www.w3.org/1999/xlink" x="0px"
	 y="0px" viewBox="0 0 72 72" style="enable-background:new 0 0 72 72;" xml:space="preserve">
<style type="text/css">
	.st0{fill:#000000;}
</style>
<path class="st0" d="M36.2,0.2c-19.9,0-36,16.1-36,36s16.1,36,36,36s36-16.1,36-36S56.1,0.2,36.2,0.2z M24.2,29.2c-2.2,0-4-1.8-4-4
	c0-2.2,1.8-4,4-4s4,1.8,4,4C28.2,27.5,26.4,29.2,24.2,29.2z M36.2,54.2c-2.2,0-4-1.8-4-4c0-2.2,1.8-4,4-4s4,1.8,4,4
	C40.2,52.5,38.4,54.2,36.2,54.2z M36.2,41.7c-2.2,0-4-1.8-4-4c0-2.2,1.8-4,4-4s4,1.8,4,4C40.2,40,38.4,41.7,36.2,41.7z M36.2,29.2
	c-2.2,0-4-1.8-4-4c0-2.2,1.8-4,4-4s4,1.8,4,4C40.2,27.5,38.4,29.2,36.2,29.2z M48.2,29.2c-2.2,0-4-1.8-4-4c0-2.2,1.8-4,4-4
	s4,1.8,4,4C52.2,27.5,50.4,29.2,48.2,29.2z"/>
</svg>
